
<svg width="218px" height="24px" viewBox="0 0 218 24" version="1.1" xmlns="http://www.w3.org/2000/svg" xmlns:xlink="http://www.w3.org/1999/xlink" xmlns:sketch="http://www.bohemiancoding.com/sketch/ns">
    <g id="Page-1" stroke="none" stroke-width="1" fill="none" fill-rule="evenodd" sketch:type="MSPage">
        <g id="Microsoft-Education-Logo-Final" sketch:type="MSArtboardGroup">
            <path d="M144.617188,18 L144.617188,5.39648438 L150.505859,5.39648438 L150.505859,6.19628906 L145.487305,6.19628906 L145.487305,11.25 L150.145508,11.25 L150.145508,12.0410156 L145.487305,12.0410156 L145.487305,17.2089844 L150.795898,17.2089844 L150.795898,18 L144.617188,18 Z M159.831055,18 L159.831055,16.3652344 L159.795898,16.3652344 C159.502928,16.9335966 159.069339,17.384764 158.495117,17.71875 C157.920896,18.052736 157.273441,18.2197266 156.552734,18.2197266 C155.445307,18.2197266 154.541507,17.8154337 153.841309,17.0068359 C153.14111,16.1982381 152.791016,15.0820384 152.791016,13.6582031 C152.791016,12.2050709 153.173336,11.0288131 153.937988,10.1293945 C154.702641,9.22997597 155.69433,8.78027344 156.913086,8.78027344 C158.260749,8.78027344 159.221677,9.33397884 159.795898,10.4414062 L159.831055,10.4414062 L159.831055,4.67578125 L160.639648,4.67578125 L160.639648,18 L159.831055,18 Z M159.831055,12.5244141 C159.831055,11.6865192 159.565921,10.9760771 159.035645,10.3930664 C158.505368,9.81005568 157.791997,9.51855469 156.895508,9.51855469 C155.952144,9.51855469 155.172855,9.88036748 154.557617,10.6040039 C153.94238,11.3276403 153.634766,12.3222593 153.634766,13.5878906 C153.634766,14.8300843 153.911618,15.7895474 154.465332,16.4663086 C155.019046,17.1430698 155.732418,17.4814453 156.605469,17.4814453 C157.630865,17.4814453 158.424802,17.1635774 158.987305,16.527832 C159.549807,15.8920867 159.831055,15.1171921 159.831055,14.203125 L159.831055,12.5244141 Z M169.463867,18 L169.463867,16.3652344 L169.428711,16.3652344 C168.801755,17.6015687 167.834967,18.2197266 166.52832,18.2197266 C164.401357,18.2197266 163.337891,16.8808728 163.337891,14.203125 L163.337891,9 L164.155273,9 L164.155273,14.0009766 C164.155273,15.2197327 164.355955,16.1044894 164.757324,16.6552734 C165.158693,17.2060574 165.790035,17.4814453 166.651367,17.4814453 C167.489262,17.4814453 168.167478,17.1738312 168.686035,16.5585938 C169.204592,15.9433563 169.463867,15.123052 169.463867,14.0976562 L169.463867,9 L170.272461,9 L170.272461,18 L169.463867,18 Z M178.982422,17.6044922 C178.31445,18.0146505 177.517583,18.2197266 176.591797,18.2197266 C175.367181,18.2197266 174.379887,17.7993206 173.629883,16.9584961 C172.879879,16.1176716 172.504883,15.0175849 172.504883,13.6582031 C172.504883,12.2285085 172.926754,11.05811 173.770508,10.1469727 C174.614262,9.23583529 175.698236,8.78027344 177.022461,8.78027344 C177.708011,8.78027344 178.373044,8.92089703 179.017578,9.20214844 L179.017578,10.1162109 C178.373044,9.71777145 177.666996,9.51855469 176.899414,9.51855469 C175.844721,9.51855469 174.989261,9.89794542 174.333008,10.6567383 C173.676755,11.4155311 173.348633,12.3984315 173.348633,13.6054688 C173.348633,14.7714902 173.648923,15.7089808 174.249512,16.4179688 C174.850101,17.1269567 175.642573,17.4814453 176.626953,17.4814453 C177.529301,17.4814453 178.31445,17.2412133 178.982422,16.7607422 L178.982422,17.6044922 Z M186.523438,18 L186.523438,16.1982422 L186.488281,16.1982422 C186.20117,16.8134796 185.783694,17.3041974 185.23584,17.6704102 C184.687986,18.0366229 184.080081,18.2197266 183.412109,18.2197266 C182.556636,18.2197266 181.879885,17.9794946 181.381836,17.4990234 C180.883787,17.0185523 180.634766,16.412113 180.634766,15.6796875 C180.634766,14.1093671 181.674794,13.1601579 183.754883,12.8320312 L186.523438,12.4189453 C186.523438,10.4853419 185.796882,9.51855469 184.34375,9.51855469 C183.353511,9.51855469 182.389653,9.9169882 181.452148,10.7138672 L181.452148,9.73828125 C181.786134,9.47460806 182.238767,9.24902437 182.810059,9.06152344 C183.381351,8.8740225 183.918943,8.78027344 184.422852,8.78027344 C185.348637,8.78027344 186.064939,9.06737994 186.571777,9.64160156 C187.078616,10.2158232 187.332031,11.0507758 187.332031,12.1464844 L187.332031,18 L186.523438,18 Z M184.044922,13.5175781 C183.101558,13.6523444 182.439455,13.870604 182.058594,14.1723633 C181.677732,14.4741226 181.487305,14.9648404 181.487305,15.6445312 C181.487305,16.177737 181.664549,16.6171858 182.019043,16.9628906 C182.373537,17.3085955 182.867184,17.4814453 183.5,17.4814453 C184.367192,17.4814453 185.087888,17.1606477 185.662109,16.519043 C186.236331,15.8774382 186.523438,15.0498098 186.523438,14.0361328 L186.523438,13.1572266 L184.044922,13.5175781 Z M193.598633,17.8769531 C193.176756,18.0761729 192.781252,18.1757812 192.412109,18.1757812 C191.082025,18.1757812 190.416992,17.3789142 190.416992,15.7851562 L190.416992,9.73828125 L188.799805,9.73828125 L188.799805,9 L190.416992,9 L190.416992,6.66210938 C190.545899,6.61523414 190.680663,6.56835961 190.821289,6.52148438 C190.961915,6.48046854 191.096679,6.43652367 191.225586,6.38964844 L191.225586,9 L193.598633,9 L193.598633,9.73828125 L191.225586,9.73828125 L191.225586,15.6796875 C191.225586,16.3007844 191.323729,16.7504869 191.52002,17.0288086 C191.71631,17.3071303 192.048826,17.4462891 192.517578,17.4462891 C192.851564,17.4462891 193.211912,17.3378917 193.598633,17.1210938 L193.598633,17.8769531 Z M195.77832,6.73242188 C195.602538,6.73242188 195.447266,6.66796939 195.3125,6.5390625 C195.177734,6.41015561 195.110352,6.24609475 195.110352,6.046875 C195.110352,5.85351466 195.179199,5.69677794 195.316895,5.57666016 C195.454591,5.45654237 195.608398,5.39648438 195.77832,5.39648438 C195.959962,5.39648438 196.119628,5.45507754 196.257324,5.57226562 C196.39502,5.68945371 196.463867,5.84765525 196.463867,6.046875 C196.463867,6.23437594 196.396485,6.39550714 196.261719,6.53027344 C196.126952,6.66503974 195.965821,6.73242188 195.77832,6.73242188 L195.77832,6.73242188 Z M195.382812,18 L195.382812,9 L196.191406,9 L196.191406,18 L195.382812,18 Z M202.686523,18.2197266 C201.374017,18.2197266 200.335453,17.787602 199.570801,16.9233398 C198.806149,16.0590777 198.423828,14.9355538 198.423828,13.5527344 C198.423828,12.0585863 198.823726,10.8896527 199.623535,10.0458984 C200.423344,9.20214422 201.476556,8.78027344 202.783203,8.78027344 C204.066413,8.78027344 205.080074,9.19921456 205.824219,10.0371094 C206.568363,10.8750042 206.94043,12.0351488 206.94043,13.5175781 C206.94043,14.9179758 206.561039,16.0517535 205.802246,16.9189453 C205.043453,17.7861371 204.004889,18.2197266 202.686523,18.2197266 L202.686523,18.2197266 Z M202.748047,9.51855469 C201.687495,9.51855469 200.842288,9.87597299 200.212402,10.5908203 C199.582516,11.3056676 199.267578,12.2988218 199.267578,13.5703125 C199.267578,14.7480528 199.575192,15.6943324 200.19043,16.4091797 C200.805667,17.124027 201.646479,17.4814453 202.712891,17.4814453 C203.79688,17.4814453 204.631833,17.1298863 205.217773,16.4267578 C205.803714,15.7236293 206.09668,14.7480531 206.09668,13.5 C206.09668,12.2167905 205.805179,11.2324253 205.222168,10.546875 C204.639157,9.8613247 203.814458,9.51855469 202.748047,9.51855469 L202.748047,9.51855469 Z M215.290039,18 L215.290039,12.7617188 C215.290039,10.5995986 214.51075,9.51855469 212.952148,9.51855469 C212.084957,9.51855469 211.37305,9.8364226 210.816406,10.472168 C210.259763,11.1079133 209.981445,11.8945266 209.981445,12.8320312 L209.981445,18 L209.172852,18 L209.172852,9 L209.981445,9 L209.981445,10.6347656 L210.016602,10.6347656 C210.672855,9.39843132 211.698235,8.78027344 213.092773,8.78027344 C214.065435,8.78027344 214.809568,9.10400067 215.325195,9.75146484 C215.840823,10.398929 216.098633,11.3232362 216.098633,12.5244141 L216.098633,18 L215.290039,18 Z" id="Education" fill="#FFFFFF" sketch:type="MSShapeGroup"></path>
            <rect id="Divider" fill="#FFFFFF" sketch:type="MSShapeGroup" x="127" y="0" width="1" height="24"></rect>
            <path d="M46.0908203,18 L44.0166016,18 L44.0166016,9.84375 C44.0166016,9.17577791 44.0576168,8.35840327 44.1396484,7.39160156 L44.1044922,7.39160156 C43.9755853,7.94238557 43.8613286,8.33788942 43.7617188,8.578125 L40,18 L38.5585938,18 L34.7880859,8.6484375 C34.6826167,8.3730455 34.5712896,7.95410438 34.4541016,7.39160156 L34.4189453,7.39160156 C34.4658205,7.89551033 34.4892578,8.71874429 34.4892578,9.86132812 L34.4892578,18 L32.5556641,18 L32.5556641,5.39648438 L35.5,5.39648438 L38.8134766,13.7900391 C39.0654309,14.4345735 39.2294918,14.9150375 39.3056641,15.2314453 L39.3496094,15.2314453 C39.5664073,14.5693326 39.7421868,14.07715 39.8769531,13.7548828 L43.2519531,5.39648438 L46.0908203,5.39648438 L46.0908203,18 Z M49.9931641,7.11035156 C49.659178,7.11035156 49.3735363,7.00195421 49.1362305,6.78515625 C48.8989246,6.56835829 48.7802734,6.29297042 48.7802734,5.95898438 C48.7802734,5.62499833 48.8989246,5.3466808 49.1362305,5.12402344 C49.3735363,4.90136607 49.659178,4.79003906 49.9931641,4.79003906 C50.3388689,4.79003906 50.6318347,4.90136607 50.8720703,5.12402344 C51.1123059,5.3466808 51.2324219,5.62499833 51.2324219,5.95898438 C51.2324219,6.27539221 51.1123059,6.54638559 50.8720703,6.77197266 C50.6318347,6.99755972 50.3388689,7.11035156 49.9931641,7.11035156 L49.9931641,7.11035156 Z M51.0039062,18 L48.9648438,18 L48.9648438,9 L51.0039062,9 L51.0039062,18 Z M60.109375,17.5869141 C59.3886683,18.0029318 58.5361377,18.2109375 57.5517578,18.2109375 C56.2158136,18.2109375 55.1376994,17.7934612 54.3173828,16.9584961 C53.4970662,16.123531 53.0869141,15.0410223 53.0869141,13.7109375 C53.0869141,12.2285082 53.5278276,11.0376022 54.409668,10.1381836 C55.2915083,9.23876503 56.4706957,8.7890625 57.9472656,8.7890625 C58.7675822,8.7890625 59.4912078,8.93261575 60.1181641,9.21972656 L60.1181641,11.1181641 C59.4912078,10.6494117 58.8232457,10.4150391 58.1142578,10.4150391 C57.2529254,10.4150391 56.5468778,10.7065401 55.9960938,11.2895508 C55.4453097,11.8725615 55.1699219,12.6357375 55.1699219,13.5791016 C55.1699219,14.5107468 55.4291966,15.2460911 55.9477539,15.7851562 C56.4663112,16.3242214 57.162105,16.59375 58.0351562,16.59375 C58.7675818,16.59375 59.4589811,16.3330104 60.109375,15.8115234 L60.109375,17.5869141 Z M67.3515625,10.9423828 C67.1054675,10.7490225 66.7509789,10.6523438 66.2880859,10.6523438 C65.6845673,10.6523438 65.1806661,10.924802 64.7763672,11.4697266 C64.3720683,12.0146512 64.1699219,12.7558547 64.1699219,13.6933594 L64.1699219,18 L62.1308594,18 L62.1308594,9 L64.1699219,9 L64.1699219,10.8544922 L64.2050781,10.8544922 C64.4042979,10.2216765 64.7104472,9.72802912 65.1235352,9.37353516 C65.5366232,9.0190412 65.9980443,8.84179688 66.5078125,8.84179688 C66.876955,8.84179688 67.1582022,8.89746038 67.3515625,9.00878906 L67.3515625,10.9423828 Z M72.7832031,18.2109375 C71.3945243,18.2109375 70.2856487,17.7905315 69.456543,16.949707 C68.6274373,16.1088825 68.2128906,14.9941476 68.2128906,13.6054688 C68.2128906,12.0937424 68.6450152,10.9130902 69.5092773,10.0634766 C70.3735395,9.21386294 71.5380786,8.7890625 73.0029297,8.7890625 C74.4091867,8.7890625 75.5048789,9.20214431 76.2900391,10.0283203 C77.0751992,10.8544963 77.4677734,11.9999927 77.4677734,13.4648438 C77.4677734,14.9003978 77.0444378,16.0502886 76.1977539,16.9145508 C75.35107,17.7788129 74.2128978,18.2109375 72.7832031,18.2109375 L72.7832031,18.2109375 Z M72.8798828,10.4150391 C72.0830038,10.4150391 71.4531273,10.6933566 70.9902344,11.25 C70.5273414,11.8066434 70.2958984,12.5742139 70.2958984,13.5527344 C70.2958984,14.4960985 70.5302711,15.2387668 70.9990234,15.7807617 C71.4677758,16.3227566 72.0947226,16.59375 72.8798828,16.59375 C73.6826212,16.59375 74.2993143,16.3271511 74.7299805,15.7939453 C75.1606467,15.2607395 75.3759766,14.501958 75.3759766,13.5175781 C75.3759766,12.5273388 75.1606467,11.762698 74.7299805,11.2236328 C74.2993143,10.6845676 73.6826212,10.4150391 72.8798828,10.4150391 L72.8798828,10.4150391 Z M78.9794922,17.71875 L78.9794922,15.8291016 C79.7412147,16.4091826 80.5820267,16.6992188 81.5019531,16.6992188 C82.732428,16.6992188 83.3476562,16.3359411 83.3476562,15.609375 C83.3476562,15.4042958 83.2949224,15.2299812 83.1894531,15.0864258 C83.0839838,14.9428704 82.9418954,14.8154302 82.7631836,14.7041016 C82.5844718,14.5927729 82.3735364,14.4931645 82.1303711,14.4052734 C81.8872058,14.3173824 81.6162124,14.217774 81.3173828,14.1064453 C80.9482403,13.9599602 80.6157241,13.8046883 80.3198242,13.640625 C80.0239243,13.4765617 79.777833,13.2905284 79.581543,13.0825195 C79.3852529,12.8745107 79.2373052,12.6386732 79.1376953,12.375 C79.0380854,12.1113268 78.9882812,11.8037127 78.9882812,11.4521484 C78.9882812,11.0185525 79.0908193,10.6362321 79.2958984,10.3051758 C79.5009776,9.97411944 79.7763655,9.69580191 80.1220703,9.47021484 C80.4677752,9.24462778 80.8603494,9.0747076 81.2998047,8.96044922 C81.73926,8.84619083 82.193357,8.7890625 82.6621094,8.7890625 C83.4941448,8.7890625 84.238278,8.9150378 84.8945312,9.16699219 L84.8945312,10.9511719 C84.2617156,10.517576 83.5351604,10.3007812 82.7148438,10.3007812 C82.45703,10.3007812 82.2241221,10.3271482 82.0161133,10.3798828 C81.8081044,10.4326175 81.6308601,10.5058589 81.484375,10.5996094 C81.3378899,10.6933598 81.2236332,10.8061517 81.1416016,10.9379883 C81.0595699,11.0698249 81.0185547,11.214843 81.0185547,11.3730469 C81.0185547,11.5664072 81.0595699,11.7304681 81.1416016,11.8652344 C81.2236332,12.0000007 81.345214,12.1186518 81.5063477,12.2211914 C81.6674813,12.323731 81.8608387,12.41748 82.0864258,12.5024414 C82.3120128,12.5874028 82.5712876,12.679687 82.8642578,12.7792969 C83.2509785,12.9375008 83.598143,13.098632 83.9057617,13.2626953 C84.2133804,13.4267586 84.4755849,13.6127919 84.6923828,13.8208008 C84.9091808,14.0288096 85.0761713,14.2690416 85.1933594,14.5415039 C85.3105475,14.8139662 85.3691406,15.1376934 85.3691406,15.5126953 C85.3691406,15.9697288 85.2636729,16.3681624 85.0527344,16.7080078 C84.8417958,17.0478533 84.5605486,17.3291004 84.2089844,17.5517578 C83.8574201,17.7744152 83.4516625,17.9399409 82.9916992,18.0483398 C82.531736,18.1567388 82.0468775,18.2109375 81.5371094,18.2109375 C80.5527295,18.2109375 79.7001989,18.0468766 78.9794922,17.71875 L78.9794922,17.71875 Z M91.2929688,18.2109375 C89.9042899,18.2109375 88.7954143,17.7905315 87.9663086,16.949707 C87.1372029,16.1088825 86.7226562,14.9941476 86.7226562,13.6054688 C86.7226562,12.0937424 87.1547808,10.9130902 88.019043,10.0634766 C88.8833051,9.21386294 90.0478442,8.7890625 91.5126953,8.7890625 C92.9189523,8.7890625 94.0146445,9.20214431 94.7998047,10.0283203 C95.5849649,10.8544963 95.9775391,11.9999927 95.9775391,13.4648438 C95.9775391,14.9003978 95.5542035,16.0502886 94.7075195,16.9145508 C93.8608356,17.7788129 92.7226634,18.2109375 91.2929688,18.2109375 L91.2929688,18.2109375 Z M91.3896484,10.4150391 C90.5927695,10.4150391 89.9628929,10.6933566 89.5,11.25 C89.0371071,11.8066434 88.8056641,12.5742139 88.8056641,13.5527344 C88.8056641,14.4960985 89.0400367,15.2387668 89.5087891,15.7807617 C89.9775414,16.3227566 90.6044883,16.59375 91.3896484,16.59375 C92.1923868,16.59375 92.8090799,16.3271511 93.2397461,15.7939453 C93.6704123,15.2607395 93.8857422,14.501958 93.8857422,13.5175781 C93.8857422,12.5273388 93.6704123,11.762698 93.2397461,11.2236328 C92.8090799,10.6845676 92.1923868,10.4150391 91.3896484,10.4150391 L91.3896484,10.4150391 Z M103.140625,6.33691406 C102.865233,6.17871015 102.55176,6.09960938 102.200195,6.09960938 C101.209956,6.09960938 100.714844,6.65917409 100.714844,7.77832031 L100.714844,9 L102.806641,9 L102.806641,10.5996094 L100.723633,10.5996094 L100.723633,18 L98.6845703,18 L98.6845703,10.5996094 L97.1464844,10.5996094 L97.1464844,9 L98.6845703,9 L98.6845703,7.54101562 C98.6845703,6.59179213 98.9951141,5.84326446 99.6162109,5.29541016 C100.237308,4.74755585 101.013667,4.47363281 101.945312,4.47363281 C102.449221,4.47363281 102.847655,4.52929632 103.140625,4.640625 L103.140625,6.33691406 Z M109.00293,17.9033203 C108.60449,18.1025401 108.080081,18.2021484 107.429688,18.2021484 C105.683585,18.2021484 104.810547,17.3642662 104.810547,15.6884766 L104.810547,10.5996094 L103.307617,10.5996094 L103.307617,9 L104.810547,9 L104.810547,6.91699219 L106.849609,6.33691406 L106.849609,9 L109.00293,9 L109.00293,10.5996094 L106.849609,10.5996094 L106.849609,15.0996094 C106.849609,15.6328152 106.946288,16.0136707 107.139648,16.2421875 C107.333009,16.4707043 107.655271,16.5849609 108.106445,16.5849609 C108.45215,16.5849609 108.750975,16.4853526 109.00293,16.2861328 L109.00293,17.9033203 Z" id="Microsoft" fill="#FFFFFF" sketch:type="MSShapeGroup"></path>
            <rect id="Yellow-Square" fill="#FFBB00" sketch:type="MSShapeGroup" x="13" y="13" width="11" height="11"></rect>
            <rect id="Blue-Square" fill="#00A1F1" sketch:type="MSShapeGroup" x="0" y="13" width="11" height="11"></rect>
            <rect id="Green-Square" fill="#7CBB00" sketch:type="MSShapeGroup" x="13" y="0" width="11" height="11"></rect>
            <rect id="Red-Square" fill="#F65314" sketch:type="MSShapeGroup" x="0" y="0" width="11" height="11"></rect>
        </g>
    </g>
</svg>