<?xml version="1.0" encoding="UTF-8" standalone="no"?>
<svg width="136px" height="136px" viewBox="0 0 136 136" version="1.1" xmlns="http://www.w3.org/2000/svg" xmlns:xlink="http://www.w3.org/1999/xlink" xmlns:sketch="http://www.bohemiancoding.com/sketch/ns">
    <!-- Generator: Sketch 3.3.3 (12072) - http://www.bohemiancoding.com/sketch -->
    <title>Skype_Tile</title>
    <desc>Created with Sketch.</desc>
    <defs></defs>
    <g id="Page-1" stroke="none" stroke-width="1" fill="none" fill-rule="evenodd" sketch:type="MSPage">
        <g id="ON_Live_Tiles_01" sketch:type="MSArtboardGroup" transform="translate(-272.000000, 0.000000)">
            <g id="Skype_Tile" sketch:type="MSLayerGroup" transform="translate(272.000000, 0.000000)">
                <path d="M0,0 L136,0 L136,136 L0,136 L0,0 L0,0 Z" id="Bg" fill="#00B8ED" sketch:type="MSShapeGroup"></path>
                <path d="M104,86 C104,95.936 95.9372857,104 86,104 C81.8741429,104 78.0787143,102.593429 75.0315714,100.250857 C72.779,100.718857 70.3875714,100.999143 67.9987143,100.999143 C49.7647143,100.999143 34.9995714,86.234 34.9995714,68 C34.9995714,65.6072857 35.2785714,63.2171429 35.7491429,60.9684286 C33.4052857,57.92 32,54.1258571 32,50 C32,40.0627143 40.0627143,32 49.9987143,32 C54.1245714,32 57.92,33.4065714 60.9671429,35.7478571 C63.2197143,35.2824286 65.6098571,34.9982857 67.9987143,34.9982857 C86.234,34.9982857 100.997857,49.766 100.997857,68 C100.997857,70.3901429 100.718857,72.7802857 100.249571,75.0315714 C102.592143,78.0774286 104,81.8741429 104,86" id="Fill-2" fill="#FFFFFF" sketch:type="MSShapeGroup"></path>
                <path d="M71.7674419,63.8 L67.5813953,62.96 C63.8227586,61.8815882 61.2481379,61.2997647 60.8837209,58.76 C61.2481379,56.3227647 63.7793103,55.2468235 67.5813953,55.4 C74.8449655,55.2468235 74.9802759,60.4029412 79.3023256,60.44 C82.2982069,60.4029412 84.0584828,58.1164118 84.3255814,55.4 C84.0584828,50.3637059 75.4321379,47 66.744186,47 C59.0806897,47 50,50.3637059 50,59.6 C50,66.992 55.0586207,69.68 61.7209302,71.36 L68.4186047,73.04 C72.2703448,73.8478824 74.7531034,74.2975294 75.1162791,77.24 C74.7531034,79.4524118 72.1797241,81.2003529 68.4186047,81.44 C59.8466207,81.2003529 59.3972414,74.2975294 54.1860465,73.88 C51.4015172,74.2975294 50,76.5383529 50,78.92 C50,84.5171176 58.4935172,89 68.4186047,89 C77.1464828,89 86,84.7851765 86,75.56 C86,67.8888235 78.368,65.1995882 71.7674419,63.8" id="Fill-3" fill="#00B8ED" sketch:type="MSShapeGroup"></path>
            </g>
        </g>
    </g>
</svg>