<svg xmlns="http://www.w3.org/2000/svg" viewBox="-8 7 34 34">
	 <style type="text/css">.st0{fill:red;}</style>
	<path class="st0" d="M12,32.1c0-6-4-11-9-11c-1,0-2.2-1.9-2-3c0.3-1.4,1.5-2.2,3-2c7.4,1.5,13,8.1,13,16c0,1-1,2-2,2 C13.4,34.1,12,33.1,12,32.1z"/>
	<path id="Shape" class="st0" d="M20,32.1c0.4-10.1-7.1-18.4-17-19c-1.2-0.6-2.1-1.7-2-3c0.2-1.2,1.3-2.1,3-2 c11.8,1.4,21,11.6,21,24c0,1-1,2-2,2C21.4,34.1,20.4,33,20,32.1z"/>
	<path id="b" class="st0" d="M-7,32.1c0,4.4,2,8,8,8c4,0,8-2,8-8s-5.1-8-5-8c-0.1,0-3.1-1-3,2c-0.1,3,2.9,4,3,6s-1,3-3,3s-3-1-3-3 v-12c0-1.9-1-3-3-3c-1,0-2,1.1-2,2V32.1z"/>
</svg>
