<?xml version="1.0" encoding="utf-8"?>
<!-- Generator: Adobe Illustrator 19.0.0, SVG Export Plug-In . SVG Version: 6.00 Build 0)  -->
<svg version="1.1" id="Layer_1" xmlns="http://www.w3.org/2000/svg" xmlns:xlink="http://www.w3.org/1999/xlink" x="0px" y="0px"
	 viewBox="-8 8 34 34" style="enable-background:new -8 8 34 34;" xml:space="preserve">
<style type="text/css">
	.st0{fill:none;}
</style>
<title>Globe</title>
<desc>Created with Sketch.</desc>
<path class="st0" d="M9,9C0.2,9-7,16.2-7,25S0.2,41,9,41s16-7.2,16-16S17.8,9,9,9z M21.6,19h-5.2c-0.6-3-1.6-5.5-2.9-7.3
	C17.1,13,20,15.6,21.6,19z M15,25c0,1.4-0.1,2.7-0.3,4H3.3C3.1,27.7,3,26.4,3,25s0.1-2.7,0.3-4h11.4C14.9,22.3,15,23.6,15,25z M9,39
	c-2.1,0-4.3-3.2-5.4-8h10.7C13.3,35.8,11.1,39,9,39z M3.6,19c1-4.8,3.2-8,5.4-8s4.3,3.2,5.4,8H3.6z M4.5,11.7
	C3.2,13.5,2.2,16,1.6,19h-5.2C-2,15.6,0.9,13,4.5,11.7z M-5,25c0-1.4,0.2-2.7,0.6-4h5.7C1.1,22.3,1,23.6,1,25s0.1,2.7,0.3,4h-5.7
	C-4.8,27.7-5,26.4-5,25z M-3.6,31h5.2c0.6,3,1.6,5.5,2.9,7.3C0.9,37-2,34.4-3.6,31z M13.5,38.3c1.3-1.8,2.3-4.3,2.9-7.3h5.2
	C20,34.4,17.1,37,13.5,38.3z M16.7,29c0.2-1.3,0.3-2.6,0.3-4s-0.1-2.7-0.3-4h5.7c0.4,1.3,0.6,2.6,0.6,4s-0.2,2.7-0.6,4H16.7z"/>
</svg>
