<?xml version="1.0" encoding="utf-8"?>
<!-- Generator: Adobe Illustrator 19.0.0, SVG Export Plug-In . SVG Version: 6.00 Build 0)  -->
<svg version="1.1" id="Layer_1" xmlns="http://www.w3.org/2000/svg" xmlns:xlink="http://www.w3.org/1999/xlink" x="0px" y="0px"
	 viewBox="-8 8 34 34" style="enable-background:new -8 8 34 34;" xml:space="preserve">
<style type="text/css">
	.st0{fill:none;}
</style>
<title>Android</title>
<desc>Created with Sketch.</desc>
<g>
	<path class="st0" d="M20,19.1c-1.1,0-2,0.9-2,2v8c0,1.1,0.9,2,2,2c1.1,0,2-0.9,2-2v-8C22,20,21.1,19.1,20,19.1z"/>
	<path class="st0" d="M-3,19.1c-1.1,0-2,0.9-2,2v8c0,1.1,0.9,2,2,2c1.1,0,2-0.9,2-2v-8C-1,20-1.9,19.1-3,19.1z"/>
	<path class="st0" d="M0,32.1c0,1.1,0.9,2,2,2h1v4c0,1.1,0.9,2,2,2c1.1,0,2-0.9,2-2v-4h3v4c0,1.1,0.9,2,2,2c1.1,0,2-0.9,2-2v-4h1
		c1.1,0,2-0.9,2-2v-13H0V32.1z"/>
	<path class="st0" d="M0.1,18.1H17c-0.3-2.3-1.6-4.3-3.4-5.6l1.3-1.9c0.3-0.5,0.2-1.1-0.3-1.4s-1.1-0.2-1.4,0.3l-1.4,2.1
		C11,11.3,10,11.1,9,11.1H8c-1,0-1.9,0.2-2.8,0.5L3.9,9.5C3.6,9.1,2.9,8.9,2.5,9.3C2,9.6,1.9,10.2,2.2,10.6l1.3,1.9
		C1.7,13.8,0.4,15.8,0.1,18.1z M5,16.1c-0.6,0-1-0.4-1-1c0-0.6,0.4-1,1-1c0.6,0,1,0.4,1,1C6,15.6,5.6,16.1,5,16.1z M12,16.1
		c-0.6,0-1-0.4-1-1c0-0.6,0.4-1,1-1c0.6,0,1,0.4,1,1C13,15.6,12.6,16.1,12,16.1z"/>
</g>
</svg>
