<?xml version="1.0" encoding="utf-8"?>
<!-- Generator: Adobe Illustrator 19.0.0, SVG Export Plug-In . SVG Version: 6.00 Build 0)  -->
<svg version="1.1" id="Layer_1" xmlns="http://www.w3.org/2000/svg" xmlns:xlink="http://www.w3.org/1999/xlink" x="0px" y="0px"
	 viewBox="-8 8 34 34" style="enable-background:new -8 8 34 34;" xml:space="preserve">
<style type="text/css">
	.st0{fill:none;}
</style>
<title>Apple</title>
<desc>Created with Sketch.</desc>
<g id="Icons">
	<g id="Apple">
		<path class="st0" d="M19.9,29.8c-0.9-1.3-1.3-2.7-1.3-4.3c0-1.5,0.4-2.8,1.3-4c0.5-0.7,1.2-1.4,2.2-2.3c-0.7-0.8-1.3-1.5-2-1.9
			c-1.2-0.8-2.6-1.3-4.1-1.3c-0.9,0-2.1,0.2-3.4,0.7c-1.3,0.4-2.2,0.7-2.8,0.7c-0.4,0-1.3-0.2-2.7-0.6c-1.4-0.4-2.5-0.6-3.4-0.6
			c-2.2,0-4.1,0.9-5.5,2.8C-3.3,20.8-4,23.2-4,26.2c0,3.2,1,6.4,2.8,9.8c1.9,3.3,3.8,5,5.8,5c0.6,0,1.5-0.2,2.6-0.7
			c1-0.4,2-0.6,2.8-0.6c0.8,0,1.8,0.2,2.9,0.6c1.2,0.4,2.1,0.6,2.7,0.6c1.6,0,3.3-1.3,5-3.8c1.1-1.7,1.9-3.3,2.4-4.9
			C21.9,31.9,20.8,31.1,19.9,29.8z M15,9.7c0-0.1,0-0.2,0-0.3c0-0.1-0.1-0.2-0.1-0.4c-2.1,0.5-3.6,1.3-4.5,2.6S9,14.3,9,16
			c0.8-0.1,1.5-0.2,1.9-0.3c0.6-0.2,1.3-0.6,1.9-1.2c0.8-0.7,1.3-1.5,1.7-2.4C14.8,11.2,15,10.4,15,9.7L15,9.7z"/>
	</g>
</g>
</svg>
