<?xml version="1.0" encoding="utf-8"?>
<!-- Generator: Adobe Illustrator 19.0.0, SVG Export Plug-In . SVG Version: 6.00 Build 0)  -->
<svg version="1.1" id="Layer_1" xmlns="http://www.w3.org/2000/svg" xmlns:xlink="http://www.w3.org/1999/xlink" x="0px" y="0px"
	 viewBox="37.4 8 188 34" style="enable-background:new 37.4 8 188 34;" xml:space="preserve">
<style type="text/css">
	.st0{enable-background:new    ;}
	.st1{fill:none;}
</style>
<title>OneNote</title>
<desc>Created with Sketch.</desc>
<g class="st0">
	<path class="st1" d="M89,37.4c-3.4,0-6.1-1.1-8.2-3.4c-2-2.2-3.1-5.2-3.1-8.7c0-3.9,1-6.9,3.1-9.2c2.1-2.3,4.9-3.4,8.5-3.4
		c3.3,0,6,1.1,8,3.3s3,5.1,3,8.7c0,3.9-1,7-3.1,9.3C95.3,36.2,92.5,37.4,89,37.4z M89.2,15.1c-2.5,0-4.6,0.9-6.1,2.7
		c-1.6,1.8-2.4,4.2-2.4,7.2s0.8,5.3,2.3,7.1c1.5,1.8,3.5,2.7,6,2.7c2.6,0,4.7-0.9,6.2-2.6c1.5-1.7,2.3-4.1,2.3-7.2
		c0-3.2-0.7-5.6-2.2-7.3C93.8,16,91.8,15.1,89.2,15.1z"/>
	<path class="st1" d="M118.2,37h-2.7v-9.8c0-3.6-1.3-5.4-4-5.4c-1.4,0-2.5,0.5-3.4,1.5c-0.9,1-1.3,2.3-1.3,3.9V37H104V19.9h2.7v2.8
		h0.1c1.3-2.2,3.2-3.2,5.6-3.2c1.9,0,3.3,0.6,4.3,1.8c1,1.2,1.5,3,1.5,5.2V37z"/>
	<path class="st1" d="M136.4,29.1h-12.1c0,1.9,0.6,3.4,1.5,4.4c1,1,2.3,1.6,4,1.6c1.9,0,3.7-0.6,5.3-1.9v2.6c-1.5,1.1-3.5,1.6-6,1.6
		c-2.4,0-4.3-0.8-5.7-2.3c-1.4-1.6-2.1-3.7-2.1-6.6c0-2.7,0.8-4.8,2.3-6.5c1.5-1.7,3.4-2.5,5.6-2.5s4,0.7,5.2,2.2s1.8,3.5,1.8,6
		V29.1z M133.6,26.8c0-1.6-0.4-2.8-1.1-3.7c-0.8-0.9-1.8-1.3-3.1-1.3c-1.3,0-2.4,0.5-3.3,1.4c-0.9,0.9-1.5,2.1-1.7,3.6H133.6z"/>
	<path class="st1" d="M159.5,37H156l-12.3-19.1c-0.3-0.5-0.6-1-0.8-1.5h-0.1c0.1,0.5,0.1,1.6,0.1,3.3V37h-2.8V13h3.6l12,18.8
		c0.5,0.8,0.8,1.3,1,1.6h0.1c-0.1-0.7-0.2-1.9-0.2-3.5V13h2.8V37z"/>
	<path class="st1" d="M171.8,37.4c-2.5,0-4.5-0.8-6.1-2.4c-1.5-1.6-2.3-3.7-2.3-6.4c0-2.9,0.8-5.1,2.4-6.7s3.7-2.4,6.4-2.4
		c2.6,0,4.5,0.8,6,2.4c1.4,1.6,2.1,3.7,2.1,6.5c0,2.7-0.8,4.9-2.3,6.6C176.5,36.5,174.4,37.4,171.8,37.4z M172,21.8
		c-1.8,0-3.2,0.6-4.2,1.8c-1,1.2-1.5,2.9-1.5,5c0,2,0.5,3.6,1.6,4.8c1,1.2,2.4,1.8,4.2,1.8c1.8,0,3.1-0.6,4.1-1.7
		c1-1.1,1.4-2.8,1.4-4.9c0-2.1-0.5-3.8-1.4-4.9C175.1,22.3,173.8,21.8,172,21.8z"/>
	<path class="st1" d="M191.9,36.8c-0.6,0.4-1.5,0.5-2.6,0.5c-3,0-4.5-1.7-4.5-5V22.2h-2.9v-2.3h2.9v-4.2l2.7-0.9v5.1h4.3v2.3h-4.3
		v9.6c0,1.1,0.2,2,0.6,2.5c0.4,0.5,1,0.7,1.9,0.7c0.7,0,1.3-0.2,1.8-0.6V36.8z"/>
	<path class="st1" d="M208.3,29.1h-12.1c0,1.9,0.6,3.4,1.5,4.4c1,1,2.3,1.6,4,1.6c1.9,0,3.7-0.6,5.3-1.9v2.6c-1.5,1.1-3.5,1.6-6,1.6
		c-2.4,0-4.3-0.8-5.7-2.3c-1.4-1.6-2.1-3.7-2.1-6.6c0-2.7,0.8-4.8,2.3-6.5c1.5-1.7,3.4-2.5,5.6-2.5s4,0.7,5.2,2.2s1.8,3.5,1.8,6
		V29.1z M205.5,26.8c0-1.6-0.4-2.8-1.1-3.7c-0.8-0.9-1.8-1.3-3.1-1.3c-1.3,0-2.4,0.5-3.3,1.4c-0.9,0.9-1.5,2.1-1.7,3.6H205.5z"/>
</g>
<path class="st1" d="M70,15c0-0.6-0.4-1-1-1h-2v-1c0-0.6-0.4-1-1-1h-9V9l-19,3v26l19,3v-3h9c0.6,0,1-0.5,1-1v-1h2c0.6,0,1-0.4,1-1
	v-6c0-0.2-0.1-0.3-0.2-0.5c0.1-0.1,0.2-0.3,0.2-0.5v-6c0-0.2-0.1-0.3-0.2-0.5c0.1-0.2,0.2-0.3,0.2-0.5V15z M52,31h-2l-5-8v8h-2V19h2
	l5,8v-8h2V31z M69,35C69,35,69,35,69,35l-2,0v-6h2c0,0,0,0,0,0V35z M69,28C69,28,69,28,69,28l-2,0v-6h2h0V28z M69,21L69,21h-3v7v1v7
	v1c0,0-6.5,0-9,0v-4h6v-1h-6v-2h6v-1h-6v-2h6v-1h-6v-2h6v-1h-6v-2h6v-1h-6v-2h6v-1h-6v-4c2.5,0,9,0,9,0v2c0,0,3,0,3,0
	C69,15,69,21,69,21z"/>
</svg>
