<?xml version="1.0" encoding="utf-8"?>
<!-- Generator: Adobe Illustrator 18.0.0, SVG Export Plug-In . SVG Version: 6.00 Build 0)  -->
<!DOCTYPE svg PUBLIC "-//W3C//DTD SVG 1.1//EN" "http://www.w3.org/Graphics/SVG/1.1/DTD/svg11.dtd">
<svg version="1.1" xmlns="http://www.w3.org/2000/svg" xmlns:xlink="http://www.w3.org/1999/xlink" x="0px" y="0px"
	 viewBox="0 0 34 34" enable-background="new 0 0 34 34" xml:space="preserve">
<g id="apple">
	<path d="M26.9,21.8c-0.9-1.3-1.3-2.7-1.3-4.3c0-1.5,0.4-2.8,1.3-4c0.5-0.7,1.2-1.4,2.2-2.3c-0.7-0.8-1.3-1.5-2-1.9
		C25.9,8.4,24.5,8,22.9,8c-0.9,0-2.1,0.2-3.4,0.7c-1.3,0.4-2.2,0.7-2.8,0.7c-0.4,0-1.3-0.2-2.7-0.6c-1.4-0.4-2.5-0.6-3.4-0.6
		c-2.2,0-4.1,0.9-5.5,2.8C3.7,12.8,3,15.2,3,18.2c0,3.2,1,6.4,2.8,9.8c1.9,3.3,3.8,5,5.8,5c0.6,0,1.5-0.2,2.6-0.7
		c1-0.4,2-0.6,2.8-0.6c0.8,0,1.8,0.2,2.9,0.6c1.2,0.4,2.1,0.6,2.7,0.6c1.6,0,3.3-1.3,5-3.8c1.1-1.7,1.9-3.3,2.4-4.9
		C28.9,23.9,27.8,23.1,26.9,21.8z M22,1.7c0-0.1,0-0.2,0-0.3c0-0.1-0.1-0.2-0.1-0.4c-2.1,0.5-3.6,1.3-4.5,2.6S16,6.3,16,8
		c0.8-0.1,1.5-0.2,1.9-0.3c0.6-0.2,1.3-0.6,1.9-1.2c0.8-0.7,1.3-1.5,1.7-2.4C21.8,3.2,22,2.4,22,1.7L22,1.7z"/>
</g>
<g id="windows">
	<path d="M14,18v12L1,28V6l13-2v12H1v2H14z M16,18v12.3L33,33V1L16,3.7V16h17v2H16z"/>
</g>
<g id="web">
	<path d="M17,1C8.2,1,1,8.2,1,17s7.2,16,16,16s16-7.2,16-16S25.8,1,17,1z M29.6,11h-5.2c-0.6-3-1.6-5.5-2.9-7.3
		C25.1,5,28,7.6,29.6,11z M23,17c0,1.4-0.1,2.7-0.3,4H11.3c-0.2-1.3-0.3-2.6-0.3-4s0.1-2.7,0.3-4h11.4C22.9,14.3,23,15.6,23,17z
		 M17,31c-2.1,0-4.3-3.2-5.4-8h10.7C21.3,27.8,19.1,31,17,31z M11.6,11c1-4.8,3.2-8,5.4-8s4.3,3.2,5.4,8H11.6z M12.5,3.7
		C11.2,5.5,10.2,8,9.6,11H4.4C6,7.6,8.9,5,12.5,3.7z M3.6,13h5.7C9.1,14.3,9,15.6,9,17s0.1,2.7,0.3,4H3.6C3.2,19.7,3,18.4,3,17
		S3.2,14.3,3.6,13z M4.4,23h5.2c0.6,3,1.6,5.5,2.9,7.3C8.9,29,6,26.4,4.4,23z M21.5,30.3c1.3-1.8,2.3-4.3,2.9-7.3h5.2
		C28,26.4,25.1,29,21.5,30.3z M30.4,21h-5.7c0.2-1.3,0.3-2.6,0.3-4s-0.1-2.7-0.3-4h5.7c0.4,1.3,0.6,2.6,0.6,4S30.8,19.7,30.4,21z"/>
</g>
<g id="android">
	<g>
		<path d="M28.5,11.5c-1.1,0-2,0.9-2,2v8c0,1.1,0.9,2,2,2c1.1,0,2-0.9,2-2v-8C30.5,12.4,29.6,11.5,28.5,11.5z"/>
		<path d="M5.5,11.5c-1.1,0-2,0.9-2,2v8c0,1.1,0.9,2,2,2c1.1,0,2-0.9,2-2v-8C7.5,12.4,6.6,11.5,5.5,11.5z"/>
		<path d="M8.5,24.5c0,1.1,0.9,2,2,2h1v4c0,1.1,0.9,2,2,2c1.1,0,2-0.9,2-2v-4h3v4c0,1.1,0.9,2,2,2c1.1,0,2-0.9,2-2v-4h1
			c1.1,0,2-0.9,2-2v-13h-17V24.5z"/>
		<path d="M8.6,10.5h16.9c-0.3-2.3-1.6-4.3-3.4-5.6l1.3-1.9c0.3-0.5,0.2-1.1-0.3-1.4c-0.5-0.3-1.1-0.2-1.4,0.3L20.3,4
			c-0.9-0.3-1.8-0.5-2.8-0.5h-1c-1,0-1.9,0.2-2.8,0.5l-1.4-2.1c-0.3-0.5-0.9-0.6-1.4-0.3c-0.5,0.3-0.6,0.9-0.3,1.4l1.3,1.9
			C10.1,6.2,8.8,8.2,8.6,10.5z M13.5,8.5c-0.6,0-1-0.4-1-1c0-0.6,0.4-1,1-1s1,0.4,1,1C14.5,8.1,14.1,8.5,13.5,8.5z M20.5,8.5
			c-0.6,0-1-0.4-1-1c0-0.6,0.4-1,1-1s1,0.4,1,1C21.5,8.1,21.1,8.5,20.5,8.5z"/>
	</g>
</g>
</svg>
