<svg xmlns="http://www.w3.org/2000/svg" viewBox="-8 8 34 34">
	<!-- Twitter -->
	 <path d="M21,16c1.9-0.9,3-3,3-4c-1.1,1-4,2-4,2c-1.2-1-2.2-2-5-2c-3.4,0-7,2-7,6v2 c-4.7,0.3-9.8-3.8-13-7c0,0-3,4.2,2,9c-0.9,0.4-3-1-3-1c0,4.5,5,7,5,7h-3c2.2,4.8,6,5,6,5s-0.7,1.9-9,2c0,0,4.1,3,10,3 c12.7,0,18.7-10,19-19v-1c0,0,3-1.8,3-3C25,15,22.9,16.2,21,16z"></path>
	 <!-- facebook -->
	 <path d="M12,41V25h4l1-5h-5v-4c0-0.7,0-2,2-2h3V9h-4c-5.8,0-8,4-8,7v4H2v5h3v16H12z"></path>
	 <!-- blog -->
	 <path d="M12,32.1c0-6-4-11-9-11c-1,0-2.2-1.9-2-3c0.3-1.4,1.5-2.2,3-2c7.4,1.5,13,8.1,13,16c0,1-1,2-2,2 C13.4,34.1,12,33.1,12,32.1z"></path>
	 <path d="M20,32.1c0.4-10.1-7.1-18.4-17-19c-1.2-0.6-2.1-1.7-2-3c0.2-1.2,1.3-2.1,3-2 c11.8,1.4,21,11.6,21,24c0,1-1,2-2,2C21.4,34.1,20.4,33,20,32.1z"></path>
	 <path d="M-7,32.1c0,4.4,2,8,8,8c4,0,8-2,8-8s-5.1-8-5-8c-0.1,0-3.1-1-3,2c-0.1,3,2.9,4,3,6s-1,3-3,3s-3-1-3-3 v-12c0-1.9-1-3-3-3c-1,0-2,1.1-2,2V32.1z"></path>
</svg>