<?xml version="1.0" encoding="UTF-8" standalone="no"?>
<svg width="136px" height="136px" viewBox="0 0 136 136" version="1.1" xmlns="http://www.w3.org/2000/svg" xmlns:xlink="http://www.w3.org/1999/xlink" xmlns:sketch="http://www.bohemiancoding.com/sketch/ns">
    <!-- Generator: Sketch 3.3.3 (12072) - http://www.bohemiancoding.com/sketch -->
    <title>Sway_Tile</title>
    <desc>Created with Sketch.</desc>
    <defs></defs>
    <g id="Page-1" stroke="none" stroke-width="1" fill="none" fill-rule="evenodd" sketch:type="MSPage">
        <g id="ON_Live_Tiles_01" sketch:type="MSArtboardGroup" transform="translate(-136.000000, 0.000000)">
            <g id="Sway_Tile" sketch:type="MSLayerGroup" transform="translate(136.000000, 0.000000)">
                <path d="M0,0 L136,0 L136,136 L0,136 L0,0 L0,0 Z" id="Bg" fill="#138677" sketch:type="MSShapeGroup"></path>
                <path d="M72,104 L32,96 L32,40 L72,32 L72,104" id="Fill-5" fill="#FFFFFF" sketch:type="MSShapeGroup"></path>
                <path d="M75,73 L87,73 L87,76 L75,76 L75,80 L87,80 L87,83 L75,83 L75,87 L87,87 L87,90 L75,90 L75,96 L102,96 C103.105,96 104,95.104 104,94 L104,42 C104,40.896 103.105,40 102,40 L75,40 L75,73 L75,73 Z M89,87 L102,87 L102,90 L89,90 L89,87 L89,87 Z M89,80 L102,80 L102,83 L89,83 L89,80 L89,80 Z M89,73 L102,73 L102,76 L89,76 L89,73 L89,73 Z" id="Fill-6" fill="#FFFFFF" sketch:type="MSShapeGroup"></path>
                <path d="M75,57.8 L82.473,51.667 C82.844,51.255 83.348,51.016 83.912,51.006 C84.475,50.997 85.001,50.95 85.386,51.347 L98.82,65 L100.814,65 L90.845,54.627 L93.097,52.576 C93.289,52.39 93.553,52.354 93.825,52.361 C94.098,52.367 94.453,52.515 94.636,52.711 L104,62.638 L104,67 L75,67 L75,57.8" id="Fill-8" fill="#16897B" sketch:type="MSShapeGroup"></path>
                <path d="M102,46.5 C102,47.881 100.881,49 99.5,49 C98.12,49 97,47.881 97,46.5 C97,45.12 98.12,44 99.5,44 C100.881,44 102,45.12 102,46.5" id="Fill-7" fill="#16897B" sketch:type="MSShapeGroup"></path>
                <path d="M58.749,71.309 C58.237,69.287 56.889,67.673 55.267,66.497 C53.938,65.534 51.718,64.684 51.179,62.908 C50.674,61.252 51.918,59.717 53.518,59.403 C55.246,59.065 56,60.124 58,61.011 L58,58.005 L58,56.002 C58,56.002 56.818,55 54.375,55 C50.352,55 46.731,57.498 46.426,61.875 C46.262,64.242 47.238,66.363 48.871,67.969 C50.42,69.49 53.199,70.393 54.014,72.594 C54.778,74.656 53.532,75.875 51.634,76.011 C49.568,76.159 47.752,75.035 46,74.033 L46,79.043 C49.088,80.925 52.045,81.905 55.477,79.868 C58.33,78.175 59.575,74.569 58.749,71.309" id="Fill-9" fill="#16897B" sketch:type="MSShapeGroup"></path>
            </g>
        </g>
    </g>
</svg>