<?xml version="1.0" encoding="utf-8"?>
<!-- Generator: Adobe Illustrator 18.0.0, SVG Export Plug-In . SVG Version: 6.00 Build 0)  -->
<!DOCTYPE svg PUBLIC "-//W3C//DTD SVG 1.1//EN" "http://www.w3.org/Graphics/SVG/1.1/DTD/svg11.dtd">
<svg version="1.1" id="Layer_1" xmlns="http://www.w3.org/2000/svg" xmlns:xlink="http://www.w3.org/1999/xlink" x="0px" y="0px"
	 viewBox="0 0 224 24" enable-background="new 0 0 224 24" xml:space="preserve">
<g>
	<g>
		<g>
			<path fill="#FFFFFF" d="M152.4,17.3h-6.7V4.7h6.4v1.3h-4.9v4.2h4.6v1.3h-4.6V16h5.2V17.3z"/>
			<path fill="#FFFFFF" d="M162.3,17.3h-1.4v-1.5h0c-0.7,1.2-1.7,1.7-3.1,1.7c-1.1,0-2-0.4-2.7-1.2c-0.7-0.8-1-1.9-1-3.3
				c0-1.5,0.4-2.7,1.1-3.6s1.7-1.3,3-1.3c1.2,0,2.1,0.5,2.7,1.5h0V4h1.4V17.3z M160.9,13.3v-1.3c0-0.7-0.2-1.3-0.7-1.8
				s-1.1-0.8-1.8-0.8c-0.9,0-1.6,0.3-2.1,1s-0.8,1.5-0.8,2.7c0,1,0.2,1.9,0.7,2.5c0.5,0.6,1.1,0.9,1.9,0.9c0.8,0,1.5-0.3,2-0.9
				C160.6,14.9,160.9,14.1,160.9,13.3z"/>
			<path fill="#FFFFFF" d="M172.5,17.3h-1.4v-1.4h0c-0.6,1.1-1.5,1.6-2.8,1.6c-2.1,0-3.2-1.3-3.2-3.8V8.3h1.4v5.2
				c0,1.9,0.7,2.8,2.2,2.8c0.7,0,1.3-0.3,1.7-0.8c0.5-0.5,0.7-1.2,0.7-2V8.3h1.4V17.3z"/>
			<path fill="#FFFFFF" d="M181.6,16.9c-0.7,0.4-1.5,0.6-2.5,0.6c-1.3,0-2.3-0.4-3.1-1.3c-0.8-0.8-1.2-1.9-1.2-3.2
				c0-1.5,0.4-2.7,1.3-3.6s2-1.3,3.4-1.3c0.8,0,1.5,0.1,2.1,0.4V10c-0.7-0.5-1.4-0.7-2.1-0.7c-0.9,0-1.7,0.3-2.3,1
				c-0.6,0.7-0.9,1.5-0.9,2.6c0,1.1,0.3,1.9,0.8,2.5c0.6,0.6,1.3,0.9,2.2,0.9c0.8,0,1.5-0.3,2.2-0.8V16.9z"/>
			<path fill="#FFFFFF" d="M190.2,17.3h-1.4v-1.4h0c-0.6,1.1-1.5,1.6-2.8,1.6c-0.9,0-1.6-0.2-2.1-0.7s-0.8-1.1-0.8-1.9
				c0-1.7,1-2.7,3-2.9l2.7-0.4c0-1.5-0.6-2.3-1.9-2.3c-1.1,0-2.1,0.4-2.9,1.1V9c0.9-0.6,1.9-0.8,3.1-0.8c2.1,0,3.2,1.1,3.2,3.4V17.3
				z M188.8,12.8l-2.2,0.3c-0.7,0.1-1.2,0.3-1.5,0.5c-0.3,0.2-0.5,0.7-0.5,1.3c0,0.4,0.2,0.8,0.5,1.1c0.3,0.3,0.7,0.4,1.3,0.4
				c0.7,0,1.3-0.2,1.8-0.8c0.5-0.5,0.7-1.1,0.7-1.9V12.8z"/>
			<path fill="#FFFFFF" d="M197.1,17.2c-0.3,0.2-0.8,0.3-1.3,0.3c-1.6,0-2.4-0.9-2.4-2.6V9.6h-1.5V8.3h1.5V6.1l1.4-0.5v2.7h2.3v1.2
				h-2.3v5.1c0,0.6,0.1,1,0.3,1.3s0.5,0.4,1,0.4c0.4,0,0.7-0.1,0.9-0.3V17.2z"/>
			<path fill="#FFFFFF" d="M199.7,6c-0.3,0-0.5-0.1-0.7-0.3s-0.3-0.4-0.3-0.7s0.1-0.5,0.3-0.7s0.4-0.3,0.7-0.3
				c0.3,0,0.5,0.1,0.7,0.3c0.2,0.2,0.3,0.4,0.3,0.7c0,0.3-0.1,0.5-0.3,0.7C200.2,5.9,200,6,199.7,6z M200.5,17.3H199v-9h1.4V17.3z"
				/>
			<path fill="#FFFFFF" d="M207.1,17.5c-1.3,0-2.4-0.4-3.2-1.3c-0.8-0.8-1.2-2-1.2-3.3c0-1.5,0.4-2.7,1.2-3.5s1.9-1.3,3.3-1.3
				c1.3,0,2.4,0.4,3.1,1.2c0.8,0.8,1.1,2,1.1,3.4c0,1.4-0.4,2.6-1.2,3.4C209.6,17.1,208.5,17.5,207.1,17.5z M207.2,9.3
				c-0.9,0-1.7,0.3-2.2,0.9s-0.8,1.5-0.8,2.6c0,1.1,0.3,1.9,0.8,2.5s1.3,0.9,2.2,0.9c0.9,0,1.6-0.3,2.1-0.9c0.5-0.6,0.8-1.5,0.8-2.6
				c0-1.1-0.2-2-0.8-2.6C208.9,9.6,208.2,9.3,207.2,9.3z"/>
			<path fill="#FFFFFF" d="M221.4,17.3h-1.4v-5.1c0-1.9-0.7-2.9-2.1-2.9c-0.7,0-1.3,0.3-1.8,0.8s-0.7,1.2-0.7,2.1v5.1h-1.4v-9h1.4
				v1.5h0c0.7-1.1,1.7-1.7,3-1.7c1,0,1.7,0.3,2.3,1s0.8,1.6,0.8,2.8V17.3z"/>
		</g>
	</g>
	<g>
		<rect x="0.1" fill="#EF5031" width="11" height="11"/>
		<rect x="13.1" fill="#7FBB42" width="11" height="11"/>
		<rect x="0.1" y="13" fill="#58A3D9" width="11" height="11"/>
		<rect x="13.1" y="13" fill="#F3B940" width="11" height="11"/>
	</g>
	<g>
		<path fill="#FFFFFF" d="M46.2,18.3h-2.1v-8.2c0-0.7,0-1.5,0.1-2.5h0c-0.1,0.6-0.2,0.9-0.3,1.2l-3.8,9.4h-1.4L34.9,9
			c-0.1-0.3-0.2-0.7-0.3-1.3h0c0,0.5,0.1,1.3,0.1,2.5v8.1h-1.9V5.7h2.9l3.3,8.4c0.3,0.6,0.4,1.1,0.5,1.4h0c0.2-0.7,0.4-1.2,0.5-1.5
			l3.4-8.4h2.8V18.3z"/>
		<path fill="#FFFFFF" d="M50.1,7.4c-0.3,0-0.6-0.1-0.9-0.3s-0.4-0.5-0.4-0.8s0.1-0.6,0.4-0.8s0.5-0.3,0.9-0.3
			c0.3,0,0.6,0.1,0.9,0.3s0.4,0.5,0.4,0.8c0,0.3-0.1,0.6-0.4,0.8S50.4,7.4,50.1,7.4z M51.1,18.3h-2v-9h2V18.3z"/>
		<path fill="#FFFFFF" d="M60.2,17.9c-0.7,0.4-1.6,0.6-2.6,0.6c-1.3,0-2.4-0.4-3.2-1.3c-0.8-0.8-1.2-1.9-1.2-3.2
			c0-1.5,0.4-2.7,1.3-3.6s2.1-1.3,3.5-1.3c0.8,0,1.5,0.1,2.2,0.4v1.9c-0.6-0.5-1.3-0.7-2-0.7c-0.9,0-1.6,0.3-2.1,0.9
			s-0.8,1.3-0.8,2.3c0,0.9,0.3,1.7,0.8,2.2s1.2,0.8,2.1,0.8c0.7,0,1.4-0.3,2.1-0.8V17.9z"/>
		<path fill="#FFFFFF" d="M67.4,11.3c-0.2-0.2-0.6-0.3-1.1-0.3c-0.6,0-1.1,0.3-1.5,0.8s-0.6,1.3-0.6,2.2v4.3h-2v-9h2v1.9h0
			c0.2-0.6,0.5-1.1,0.9-1.5s0.9-0.5,1.4-0.5c0.4,0,0.7,0.1,0.8,0.2V11.3z"/>
		<path fill="#FFFFFF" d="M72.7,18.5c-1.4,0-2.5-0.4-3.3-1.3c-0.8-0.8-1.2-2-1.2-3.3c0-1.5,0.4-2.7,1.3-3.5s2-1.3,3.5-1.3
			c1.4,0,2.5,0.4,3.3,1.2s1.2,2,1.2,3.4c0,1.4-0.4,2.6-1.3,3.4C75.3,18.1,74.1,18.5,72.7,18.5z M72.8,10.7c-0.8,0-1.4,0.3-1.9,0.8
			s-0.7,1.3-0.7,2.3c0,0.9,0.2,1.7,0.7,2.2s1.1,0.8,1.9,0.8c0.8,0,1.4-0.3,1.9-0.8s0.6-1.3,0.6-2.3c0-1-0.2-1.8-0.6-2.3
			S73.6,10.7,72.8,10.7z"/>
		<path fill="#FFFFFF" d="M78.9,18v-1.9c0.8,0.6,1.6,0.9,2.5,0.9c1.2,0,1.8-0.4,1.8-1.1c0-0.2-0.1-0.4-0.2-0.5
			c-0.1-0.1-0.2-0.3-0.4-0.4s-0.4-0.2-0.6-0.3s-0.5-0.2-0.8-0.3c-0.4-0.1-0.7-0.3-1-0.5s-0.5-0.3-0.7-0.6c-0.2-0.2-0.3-0.4-0.4-0.7
			s-0.1-0.6-0.1-0.9c0-0.4,0.1-0.8,0.3-1.1S79.7,10,80,9.8s0.7-0.4,1.2-0.5s0.9-0.2,1.4-0.2c0.8,0,1.6,0.1,2.2,0.4v1.8
			c-0.6-0.4-1.4-0.7-2.2-0.7c-0.3,0-0.5,0-0.7,0.1s-0.4,0.1-0.5,0.2s-0.3,0.2-0.3,0.3s-0.1,0.3-0.1,0.4c0,0.2,0,0.4,0.1,0.5
			s0.2,0.3,0.4,0.4s0.4,0.2,0.6,0.3s0.5,0.2,0.8,0.3c0.4,0.2,0.7,0.3,1,0.5s0.6,0.4,0.8,0.6c0.2,0.2,0.4,0.4,0.5,0.7
			c0.1,0.3,0.2,0.6,0.2,1c0,0.5-0.1,0.9-0.3,1.2s-0.5,0.6-0.8,0.8s-0.8,0.4-1.2,0.5c-0.5,0.1-0.9,0.2-1.5,0.2
			C80.5,18.5,79.6,18.4,78.9,18z"/>
		<path fill="#FFFFFF" d="M91.2,18.5c-1.4,0-2.5-0.4-3.3-1.3c-0.8-0.8-1.2-2-1.2-3.3c0-1.5,0.4-2.7,1.3-3.5s2-1.3,3.5-1.3
			c1.4,0,2.5,0.4,3.3,1.2s1.2,2,1.2,3.4c0,1.4-0.4,2.6-1.3,3.4C93.8,18.1,92.7,18.5,91.2,18.5z M91.3,10.7c-0.8,0-1.4,0.3-1.9,0.8
			s-0.7,1.3-0.7,2.3c0,0.9,0.2,1.7,0.7,2.2s1.1,0.8,1.9,0.8c0.8,0,1.4-0.3,1.9-0.8s0.6-1.3,0.6-2.3c0-1-0.2-1.8-0.6-2.3
			S92.1,10.7,91.3,10.7z"/>
		<path fill="#FFFFFF" d="M102.8,6.7c-0.3-0.2-0.6-0.2-0.9-0.2c-1,0-1.5,0.6-1.5,1.7v1.2h2.1v1.6h-2.1v7.4h-2v-7.4h-1.5V9.3h1.5V7.9
			c0-0.9,0.3-1.7,0.9-2.2s1.4-0.8,2.3-0.8c0.5,0,0.9,0.1,1.2,0.2V6.7z"/>
		<path fill="#FFFFFF" d="M109,18.2c-0.4,0.2-0.9,0.3-1.6,0.3c-1.7,0-2.6-0.8-2.6-2.5v-5.1h-1.5V9.3h1.5V7.2l2-0.6v2.7h2.2v1.6h-2.2
			v4.5c0,0.5,0.1,0.9,0.3,1.1s0.5,0.3,1,0.3c0.3,0,0.6-0.1,0.9-0.3V18.2z"/>
	</g>
	<rect x="128.1" fill="#FFFFFF" width="1" height="24"/>
</g>
</svg>
